<svg id="Ebene_1" data-name="Ebene 1" xmlns="http://www.w3.org/2000/svg" xmlns:xlink="http://www.w3.org/1999/xlink" viewBox="0 0 441.95 443.63"><defs><style>.cls-1{fill:url(#Unbenannter_Verlauf_10);}</style><linearGradient id="Unbenannter_Verlauf_10" x1="283.31" y1="506.8" x2="766.59" y2="506.8" gradientUnits="userSpaceOnUse"><stop offset="0" stop-color="#00f1ff"/><stop offset="1" stop-color="#90ff00"/></linearGradient></defs><title>+ add a note</title><g id="jRHkEa.tif"><path class="cls-1" d="M630.36,456.68c17.31,0,34.62.06,51.93,0,20.7-.09,37.18,7.54,43.73,28.09,6.46,20.28,1.47,40.14-15.64,52.2a91.57,91.57,0,0,1-43.55,15.58c-29.58,2.37-59.5,1.14-89.26.49-15.25-.33-21.09,5.84-20.76,20.9.6,27,2,54.18-.55,80.95-1.78,18.67-6,39-15.51,54.64-16.47,27-55.7,24.92-70.08-3.26-7.85-15.38-10.88-34.18-12.16-51.72-2-26.86-1-54-.43-81,.33-15.25-6.11-21-21.07-20.72-27,.55-54,.09-81,0a143.71,143.71,0,0,1-14.52-.49c-35.19-3.7-55.93-23-54.62-50.61,1.21-25.55,24.43-43.6,58.3-44.29,29.76-.61,59.57-1.07,89.31-.1,18.43.6,24.37-6.85,23.74-24.52-1-27-.58-54,0-81,.51-24.71,7.62-46.58,30.8-59.74,28.71-16.29,60.9-3.58,64.65,28.84,4.12,35.56,2.65,71.78,3.26,107.72.47,27.63.56,28,27.78,28.1,15.23.06,30.47,0,45.7,0Z" transform="translate(-286.79 -284.99)"/></g></svg>