<svg id="Ebene_1" data-name="Ebene 1" xmlns="http://www.w3.org/2000/svg" viewBox="0 0 298.97 238.95"><defs><style>.cls-1{fill:#fff;}</style></defs><title>Arrow</title><path class="cls-1" d="M597.78,516c-.47,0-.65-.08-.83-.08H365.35a16.78,16.78,0,0,1-4.84-.57,14.48,14.48,0,0,1,2.22-28.25,12,12,0,0,1,1.44-.08c.62,0,1.25,0,1.87,0H599.46c.22-.53-.16-.69-.38-.9q-3.91-3.82-7.84-7.63L567.09,455,540.56,429.2q-11.87-11.54-23.74-23.08a14.94,14.94,0,0,1-4.49-8.34A14.47,14.47,0,0,1,536.61,385c3,2.92,6.06,5.88,9.09,8.83l26.73,26,22.6,22,29.21,28.4,19.82,19.27c.34.33.69.67,1,1a14.37,14.37,0,0,1,.4,19.5c-1.24,1.4-2.63,2.66-4,4l-25.39,24.69-27.87,27.09L564.3,589q-13.78,13.4-27.56,26.8a14.48,14.48,0,0,1-19.41.75,14.1,14.1,0,0,1-5.17-11.82,13.66,13.66,0,0,1,4-9.29c2.6-2.62,5.28-5.17,7.93-7.75l26.63-25.89L577.28,536,597,516.85C597.2,516.65,597.38,516.43,597.78,516Z" transform="translate(-350.13 -380.98)"/></svg>