<svg id="Ebene_1" data-name="Ebene 1" xmlns="http://www.w3.org/2000/svg" viewBox="0 0 135.93 175.54"><defs><style>.cls-1{fill:#fff;}</style></defs><title>Bin Icon</title><path class="cls-1" d="M538.53,565.63a7.21,7.21,0,0,0-6.82,7.32V673.55A20.45,20.45,0,0,1,511.26,694H444.72a20.93,20.93,0,0,1-20.93-20.93v-101a7.21,7.21,0,0,0-6.82-7.32,7,7,0,0,0-7.18,7V700.13a8.21,8.21,0,0,0,7.38,7.87H536.41a7,7,0,0,0,1.15-.1,5.79,5.79,0,0,0,5.34-1.75,9,9,0,0,0,2.82-6.67V572.63A7,7,0,0,0,538.53,565.63Z" transform="translate(-409.79 -532.46)"/><path class="cls-1" d="M421,559.53h0l115.39-.77a7,7,0,0,0,0-14h0l-22.8.15A8.49,8.49,0,0,0,506,532.46H451.39a8.49,8.49,0,0,0-7.25,12.91l-23.17.15a7,7,0,0,0,0,14Z" transform="translate(-409.79 -532.46)"/><path class="cls-1" d="M449.4,572.53V675.61a7,7,0,0,0,14,0V572.53a7,7,0,0,0-14,0Z" transform="translate(-409.79 -532.46)"/><path class="cls-1" d="M489.41,572.53V675.61a7,7,0,0,0,14,0V572.53a7,7,0,0,0-14,0Z" transform="translate(-409.79 -532.46)"/></svg>