<svg id="Ebene_2" data-name="Ebene 2" xmlns="http://www.w3.org/2000/svg" xmlns:xlink="http://www.w3.org/1999/xlink" viewBox="0 0 191.16 158.06"><defs><style>.cls-1{fill:url(#Unbenannter_Verlauf_119_Kopie_3);}.cls-2{fill:#fff;}</style><linearGradient id="Unbenannter_Verlauf_119_Kopie_3" x1="217.25" y1="-260.08" x2="361.84" y2="-141.72" gradientTransform="translate(113.15 477.74) rotate(-52)" gradientUnits="userSpaceOnUse"><stop offset="0" stop-color="#00e7ff"/><stop offset="1" stop-color="#8f0"/></linearGradient></defs><title>for dark backgroundLogo_Encrypted_Notes_Full</title><path class="cls-1" d="M72.6,52.11A3.5,3.5,0,0,1,69.7,50a2.55,2.55,0,0,0-1.6-1.41c-6.5-2.33-12.78-1.54-18.85,2.31-5.53,3.5-9.5,8.45-12.71,14.06a26.06,26.06,0,0,0-3.39,12.39c-.12,4.15,1.44,7.69,3.64,11,1.48,2.2,3.09,4.24,5.8,5,.77.22,1.5.53,2.27.75A19,19,0,0,0,57,93.33a30.45,30.45,0,0,0,7.85-4.65,4.61,4.61,0,0,1,.6-.4l116.29,90.84,0,0,.94.73-1.65,2.12,1.87,1.46-2.65,3.4,1.38,1.08,1.62-2.07,2.76,2.15-1.42,1.82,1.87,1.46,2.19-2.81,2.41,1.89,2.81-3.6,2.31,1.81-6.48,8.3a.87.87,0,0,0,.33.43c.23.16.39.41.62.57a2,2,0,0,0,.68.35l5.86-7.5,2.12,1.65L194.94,198a.77.77,0,0,0,.11.57,13.2,13.2,0,0,0,2.21,1.57.87.87,0,0,0,.48.06l5.27-6.74,2,1.54-5.52,7.06.12.11c1,.74,1.91,1.51,2.84,2.3a3.6,3.6,0,0,0,1.32.84L224.3,179l-4.63-3.62-5.19,6.65-2.41-1.89,5.19-6.65-2-1.56a1.43,1.43,0,0,0-.37.33l-.06.07-3.06,3.92-1.87-1.46-2.35,3-2.51-2,4.95-6.33a3.26,3.26,0,0,0-.69-.65,1.1,1.1,0,0,0-.87-.3L207,170.37l-2.31-1.81-3.19,4.09L199.4,171l2.67-3.42c-.09-.24-.33-.45-.76-.74s-.73-.43-1.09-.66a1.1,1.1,0,0,0-.63-.19l-2.54,3.25-2.46-1.92,3.74-4.79a2.34,2.34,0,0,0-.89-.77.82.82,0,0,0-1.25.26c-.93,1.2-1.9,2.38-2.85,3.57-.58.73-1.09,1.51-1.71,2.18-.9,1-1.55,1-2.49.28l-26.36-20.68q-6.45-5.06-12.87-10.15Q139,128.57,128,119.91c-5.17-4.11-10.31-8.25-15.47-12.37-5.63-4.49-11.29-8.95-16.9-13.45C89.34,89,83.09,83.92,76.75,78.92a5.41,5.41,0,0,1-1.45-2.63c0-.1.06-.27.11-.41.77-2.24,1.69-4.45,2.3-6.73,1.57-5.88.76-11.23-3.06-15.81A3,3,0,0,0,72.6,52.11ZM180.93,172c-11.55-7.08-53-40.5-53-40.5S84.39,98.37,74.59,88.67c.62.41.52-1,1.19-.55,18.34,12.49,55,42.4,55,42.4s40,31.39,50.29,40.5C181.75,171.61,180.51,171.57,180.93,172ZM62.75,76.45C58.5,81.89,52.06,84,48.37,81.08s-3.24-9.63,1-15.07,10.69-7.51,14.38-4.63S67,71,62.75,76.45Z" transform="translate(-33.14 -47.28)"/><path class="cls-2" d="M172,150.53,86.33,81a4,4,0,0,1-1.45-2.7,3.75,3.75,0,0,1,0-.39,4,4,0,0,1,.92-2.54l3.7-4.44A4,4,0,0,1,95,70.37l69.72,56.5V73.46a4,4,0,0,1,4-4h5.79a4,4,0,0,1,4,4v74a4,4,0,0,1-6.49,3.09m-9,37.15L93.3,131.19v53.41a4,4,0,0,1-4,4H83.53a4,4,0,0,1-4-4v-74A4,4,0,0,1,86,107.52l85.69,69.54a4,4,0,0,1,1.45,2.7,3.81,3.81,0,0,1,0,.39,4,4,0,0,1-.92,2.54l-3.7,4.45a4,4,0,0,1-5.57.55" transform="translate(-33.14 -47.28)"/></svg>