<svg id="Ebene_1" data-name="Ebene 1" xmlns="http://www.w3.org/2000/svg" xmlns:xlink="http://www.w3.org/1999/xlink" viewBox="0 0 475.4 491.8"><defs><style>.cls-1{fill:url(#Unbenannter_Verlauf_3);}.cls-2{fill:url(#Unbenannter_Verlauf_3-2);}</style><linearGradient id="Unbenannter_Verlauf_3" x1="203.13" y1="557.9" x2="679.25" y2="566.86" gradientUnits="userSpaceOnUse"><stop offset="0" stop-color="#00f1ff"/><stop offset="1" stop-color="#90ff00"/></linearGradient><linearGradient id="Unbenannter_Verlauf_3-2" x1="203.14" y1="557.61" x2="679.26" y2="566.57" xlink:href="#Unbenannter_Verlauf_3"/></defs><title>Gear</title><g id="_Gruppe_" data-name="&lt;Gruppe&gt;"><path class="cls-1" d="M254.74,729.86,203.45,640.5c28.9-18.23,45.15-44,45.16-78.37S232.42,502,203.53,483.69l51.28-89.18c30.1,15.64,60.31,16.65,89.75-.49s43.94-43.6,45.43-77.54H492.51c1.45,33.84,16,60.32,45.28,77.43s59.58,16.21,89.74.47l51.31,89.4c-28.81,18.29-45,44-45,78.31s16.15,60,45,78.34l-51.31,89.34c-30.21-15.42-60.49-16.36-89.95.78s-43.67,43.82-45.07,77.73H389.94c-1.36-33.91-15.64-60.67-45.19-77.79S285,714.41,254.74,729.86ZM602.13,562c0-88.31-71.44-160.7-160.56-160.92-89.63-.22-161,72.19-161.41,160.28C279.8,649.72,351.09,723,441.08,723,530.71,723.09,602.17,650.42,602.13,562Z" transform="translate(-203.45 -316.48)"/><path class="cls-2" d="M592.46,562.15c.11,82.82-66.72,150.11-149.12,151.26-85.61,1.19-155-68.77-153.55-154A151.32,151.32,0,0,1,443.44,410.77C526.08,412,592.67,479.58,592.46,562.15Zm-277.52-1.47a126.21,126.21,0,1,0,127.69-124.8A126.12,126.12,0,0,0,314.94,560.68Z" transform="translate(-203.45 -316.48)"/></g></svg>