<svg id="Ebene_1" data-name="Ebene 1" xmlns="http://www.w3.org/2000/svg" viewBox="0 0 487.17 487.17"><defs><style>.cls-1{fill:#90ff00;}</style></defs><title>Magnifying glass</title><path class="cls-1" d="M691,657.93l-87-86.77a9.76,9.76,0,0,0-1.4-1.07,210.55,210.55,0,0,1-27.7,34,206.75,206.75,0,0,1-34.11,27.72c.43.45.75,1,1.19,1.4l86.78,87A44,44,0,0,0,691,657.93Z" transform="translate(-216.66 -245.83)"/><path class="cls-1" d="M562.51,305.07c-79-79-207.52-79-286.53,0s-79.1,207.59-.06,286.6,207.58,79,286.58,0S641.5,384.06,562.51,305.07ZM313.17,554.49c-58.49-58.49-58.47-153.71,0-212.14s153.65-58.48,212.12,0,58.43,153.58,0,212.15C466.83,612.77,371.67,613,313.17,554.49Z" transform="translate(-216.66 -245.83)"/></svg>