<svg id="Ebene_1" data-name="Ebene 1" xmlns="http://www.w3.org/2000/svg" viewBox="0 0 495 272"><defs><style>.cls-1{fill:#00f1ff;}</style></defs><title>for dark backgroundMenu</title><g id="R5UYt2.tif"><path class="cls-1" d="M748,396c-.33.43-.92.84-1,1.3-.22,2.59-1.47,4.66-2.57,7-2.51,5.2-6.89,8.13-11.36,11.09a7.93,7.93,0,0,1-3.4,1.38c-2.86.28-5.53,1.34-8.49,1.34Q500.5,418,279.78,418a26.38,26.38,0,0,1-18.76-7.7,22.47,22.47,0,0,1-7.2-14c0-.15-.54-.24-.82-.36q0-4.5,0-9a4.84,4.84,0,0,0,1-1.28,20.89,20.89,0,0,1,.57-2.72c2.79-5.72,5.36-11.66,12-14.07,2.05-2.29,4.78-2.79,7.66-3,.28,0,.52-.62.78-1H726c.11.28.19.78.35.81,5,1,8.42,2,11.05,4.24,4.95,4.29,9,9.26,9.64,16.17,0,.29.63.52,1,.78Z" transform="translate(-253 -365)"/><path class="cls-1" d="M253,606c.28-.12.81-.22.82-.36.34-5.32,3.47-9.35,6.46-13.31,2.44-3.23,9.06-6.13,13.38-7.45a25.42,25.42,0,0,1,7.62-.88q219.72,0,439.44,0c7.18,0,13.13,2.88,18.62,7,3.59,2.67,7,9.57,7.7,14.28,0,.31.63.53,1,.8v9a2.07,2.07,0,0,0-.47,0,29.08,29.08,0,0,1-4.1,10.15c-3.88,6-9,9.85-16.15,10.88-.46.07-.85.63-1.27,1H275c-.26-.33-.52-1-.77-1-4.7.13-8.41-2.5-11.63-5.17a24.27,24.27,0,0,1-8.78-15.52c0-.15-.53-.23-.81-.35Q253,610.5,253,606Z" transform="translate(-253 -365)"/><path class="cls-1" d="M748,506c-.33.43-.92.84-1,1.3a11.3,11.3,0,0,1-2.67,6.93c-1.1,1.25-1.5,3.11-2.56,4.4a26.2,26.2,0,0,1-13,8.31A34.92,34.92,0,0,1,718.72,528Q499.5,528,280.28,528c-7.18,0-13.13-2.88-18.62-7-3.59-2.67-7-9.57-7.7-14.28,0-.31-.63-.53-1-.8q0-4.5,0-9c.28-.12.81-.22.82-.36.34-5.32,3.47-9.35,6.46-13.31,2.44-3.23,9.06-6.13,13.38-7.45a25.42,25.42,0,0,1,7.62-.88q219.72,0,439.44,0a27.69,27.69,0,0,1,18.54,7c4.13,3.58,7.39,8.25,7.79,14.2,0,.29.63.53,1,.8Z" transform="translate(-253 -365)"/></g></svg>